<?xml version="1.0" encoding="UTF-8" standalone="no"?>
<!DOCTYPE svg PUBLIC "-//W3C//DTD SVG 1.1//EN"
 "http://www.w3.org/Graphics/SVG/1.1/DTD/svg11.dtd">
<!-- Generated by graphviz version 2.47.1 (0)
 -->
<!-- Pages: 1 -->
<svg width="715pt" height="332pt"
 viewBox="0.00 0.00 715.14 332.00" xmlns="http://www.w3.org/2000/svg" xmlns:xlink="http://www.w3.org/1999/xlink">
<g id="graph0" class="graph" transform="scale(1 1) rotate(0) translate(4 328)">
<polygon fill="white" stroke="transparent" points="-4,4 -4,-328 711.14,-328 711.14,4 -4,4"/>
<!-- Half()_(0, 0) -->
<g id="node1" class="node">
<title>Half()_(0, 0)</title>
<ellipse fill="none" stroke="black" cx="298" cy="-162" rx="59.59" ry="18"/>
<text text-anchor="middle" x="298" y="-158.3" font-family="Times,serif" font-size="14.00">Rational(1, 2)</text>
</g>
<!-- Symbol(y)_(2, 0) -->
<g id="node2" class="node">
<title>Symbol(y)_(2, 0)</title>
<ellipse fill="none" stroke="black" cx="52" cy="-162" rx="51.99" ry="18"/>
<text text-anchor="middle" x="52" y="-158.3" font-family="Times,serif" font-size="14.00">Symbol(&#39;y&#39;)</text>
</g>
<!-- Symbol(x)_(1, 1, 0) -->
<g id="node3" class="node">
<title>Symbol(x)_(1, 1, 0)</title>
<ellipse fill="none" stroke="black" cx="545" cy="-90" rx="51.99" ry="18"/>
<text text-anchor="middle" x="545" y="-86.3" font-family="Times,serif" font-size="14.00">Symbol(&#39;x&#39;)</text>
</g>
<!-- Integer(2)_(1, 1, 1) -->
<g id="node4" class="node">
<title>Integer(2)_(1, 1, 1)</title>
<ellipse fill="none" stroke="black" cx="661" cy="-90" rx="46.29" ry="18"/>
<text text-anchor="middle" x="661" y="-86.3" font-family="Times,serif" font-size="14.00">Integer(2)</text>
</g>
<!-- NegativeOne()_(2, 1) -->
<g id="node5" class="node">
<title>NegativeOne()_(2, 1)</title>
<ellipse fill="none" stroke="black" cx="171" cy="-162" rx="48.99" ry="18"/>
<text text-anchor="middle" x="171" y="-158.3" font-family="Times,serif" font-size="14.00">Integer(&#45;1)</text>
</g>
<!-- NegativeOne()_(1, 0) -->
<g id="node6" class="node">
<title>NegativeOne()_(1, 0)</title>
<ellipse fill="none" stroke="black" cx="497" cy="-162" rx="48.99" ry="18"/>
<text text-anchor="middle" x="497" y="-158.3" font-family="Times,serif" font-size="14.00">Integer(&#45;1)</text>
</g>
<!-- Symbol(y)_(0, 1, 0, 1) -->
<g id="node7" class="node">
<title>Symbol(y)_(0, 1, 0, 1)</title>
<ellipse fill="none" stroke="black" cx="342" cy="-18" rx="51.99" ry="18"/>
<text text-anchor="middle" x="342" y="-14.3" font-family="Times,serif" font-size="14.00">Symbol(&#39;y&#39;)</text>
</g>
<!-- Symbol(x)_(0, 1, 0, 0) -->
<g id="node8" class="node">
<title>Symbol(x)_(0, 1, 0, 0)</title>
<ellipse fill="none" stroke="black" cx="464" cy="-18" rx="51.99" ry="18"/>
<text text-anchor="middle" x="464" y="-14.3" font-family="Times,serif" font-size="14.00">Symbol(&#39;x&#39;)</text>
</g>
<!-- Pow(Symbol(x), Integer(2))_(1, 1) -->
<g id="node9" class="node">
<title>Pow(Symbol(x), Integer(2))_(1, 1)</title>
<ellipse fill="none" stroke="black" cx="591" cy="-162" rx="27" ry="18"/>
<text text-anchor="middle" x="591" y="-158.3" font-family="Times,serif" font-size="14.00">Pow</text>
</g>
<!-- Pow(Symbol(x), Integer(2))_(1, 1)&#45;&gt;Symbol(x)_(1, 1, 0) -->
<g id="edge2" class="edge">
<title>Pow(Symbol(x), Integer(2))_(1, 1)&#45;&gt;Symbol(x)_(1, 1, 0)</title>
<path fill="none" stroke="black" d="M580.56,-145.12C574.96,-136.59 567.92,-125.89 561.59,-116.25"/>
<polygon fill="black" stroke="black" points="564.45,-114.23 556.03,-107.8 558.6,-118.08 564.45,-114.23"/>
</g>
<!-- Pow(Symbol(x), Integer(2))_(1, 1)&#45;&gt;Integer(2)_(1, 1, 1) -->
<g id="edge3" class="edge">
<title>Pow(Symbol(x), Integer(2))_(1, 1)&#45;&gt;Integer(2)_(1, 1, 1)</title>
<path fill="none" stroke="black" d="M605.5,-146.5C614.87,-137.13 627.27,-124.73 637.97,-114.03"/>
<polygon fill="black" stroke="black" points="640.45,-116.5 645.05,-106.95 635.5,-111.55 640.45,-116.5"/>
</g>
<!-- Pow(Symbol(y), NegativeOne())_(2,) -->
<g id="node10" class="node">
<title>Pow(Symbol(y), NegativeOne())_(2,)</title>
<ellipse fill="none" stroke="black" cx="171" cy="-234" rx="27" ry="18"/>
<text text-anchor="middle" x="171" y="-230.3" font-family="Times,serif" font-size="14.00">Pow</text>
</g>
<!-- Pow(Symbol(y), NegativeOne())_(2,)&#45;&gt;Symbol(y)_(2, 0) -->
<g id="edge1" class="edge">
<title>Pow(Symbol(y), NegativeOne())_(2,)&#45;&gt;Symbol(y)_(2, 0)</title>
<path fill="none" stroke="black" d="M151.34,-221.44C133.67,-211.04 107.31,-195.54 86.19,-183.11"/>
<polygon fill="black" stroke="black" points="87.89,-180.05 77.49,-178 84.34,-186.08 87.89,-180.05"/>
</g>
<!-- Pow(Symbol(y), NegativeOne())_(2,)&#45;&gt;NegativeOne()_(2, 1) -->
<g id="edge4" class="edge">
<title>Pow(Symbol(y), NegativeOne())_(2,)&#45;&gt;NegativeOne()_(2, 1)</title>
<path fill="none" stroke="black" d="M171,-215.7C171,-207.98 171,-198.71 171,-190.11"/>
<polygon fill="black" stroke="black" points="174.5,-190.1 171,-180.1 167.5,-190.1 174.5,-190.1"/>
</g>
<!-- Mul(Symbol(x), Symbol(y))_(0, 1, 0) -->
<g id="node11" class="node">
<title>Mul(Symbol(x), Symbol(y))_(0, 1, 0)</title>
<ellipse fill="none" stroke="black" cx="403" cy="-90" rx="27" ry="18"/>
<text text-anchor="middle" x="403" y="-86.3" font-family="Times,serif" font-size="14.00">Mul</text>
</g>
<!-- Mul(Symbol(x), Symbol(y))_(0, 1, 0)&#45;&gt;Symbol(y)_(0, 1, 0, 1) -->
<g id="edge6" class="edge">
<title>Mul(Symbol(x), Symbol(y))_(0, 1, 0)&#45;&gt;Symbol(y)_(0, 1, 0, 1)</title>
<path fill="none" stroke="black" d="M390.06,-74.15C382.33,-65.29 372.32,-53.8 363.44,-43.61"/>
<polygon fill="black" stroke="black" points="365.83,-41.03 356.63,-35.79 360.56,-45.63 365.83,-41.03"/>
</g>
<!-- Mul(Symbol(x), Symbol(y))_(0, 1, 0)&#45;&gt;Symbol(x)_(0, 1, 0, 0) -->
<g id="edge5" class="edge">
<title>Mul(Symbol(x), Symbol(y))_(0, 1, 0)&#45;&gt;Symbol(x)_(0, 1, 0, 0)</title>
<path fill="none" stroke="black" d="M415.93,-74.15C423.66,-65.29 433.67,-53.8 442.55,-43.61"/>
<polygon fill="black" stroke="black" points="445.43,-45.63 449.36,-35.79 440.16,-41.03 445.43,-45.63"/>
</g>
<!-- sin(Mul(Symbol(x), Symbol(y)))_(0, 1) -->
<g id="node12" class="node">
<title>sin(Mul(Symbol(x), Symbol(y)))_(0, 1)</title>
<ellipse fill="none" stroke="black" cx="403" cy="-162" rx="27" ry="18"/>
<text text-anchor="middle" x="403" y="-158.3" font-family="Times,serif" font-size="14.00">sin</text>
</g>
<!-- sin(Mul(Symbol(x), Symbol(y)))_(0, 1)&#45;&gt;Mul(Symbol(x), Symbol(y))_(0, 1, 0) -->
<g id="edge9" class="edge">
<title>sin(Mul(Symbol(x), Symbol(y)))_(0, 1)&#45;&gt;Mul(Symbol(x), Symbol(y))_(0, 1, 0)</title>
<path fill="none" stroke="black" d="M403,-143.7C403,-135.98 403,-126.71 403,-118.11"/>
<polygon fill="black" stroke="black" points="406.5,-118.1 403,-108.1 399.5,-118.1 406.5,-118.1"/>
</g>
<!-- Mul(Half(), sin(Mul(Symbol(x), Symbol(y))))_(0,) -->
<g id="node13" class="node">
<title>Mul(Half(), sin(Mul(Symbol(x), Symbol(y))))_(0,)</title>
<ellipse fill="none" stroke="black" cx="350" cy="-234" rx="27" ry="18"/>
<text text-anchor="middle" x="350" y="-230.3" font-family="Times,serif" font-size="14.00">Mul</text>
</g>
<!-- Mul(Half(), sin(Mul(Symbol(x), Symbol(y))))_(0,)&#45;&gt;Half()_(0, 0) -->
<g id="edge7" class="edge">
<title>Mul(Half(), sin(Mul(Symbol(x), Symbol(y))))_(0,)&#45;&gt;Half()_(0, 0)</title>
<path fill="none" stroke="black" d="M338.45,-217.46C332.07,-208.87 323.97,-197.97 316.71,-188.19"/>
<polygon fill="black" stroke="black" points="319.37,-185.9 310.6,-179.96 313.75,-190.08 319.37,-185.9"/>
</g>
<!-- Mul(Half(), sin(Mul(Symbol(x), Symbol(y))))_(0,)&#45;&gt;sin(Mul(Symbol(x), Symbol(y)))_(0, 1) -->
<g id="edge11" class="edge">
<title>Mul(Half(), sin(Mul(Symbol(x), Symbol(y))))_(0,)&#45;&gt;sin(Mul(Symbol(x), Symbol(y)))_(0, 1)</title>
<path fill="none" stroke="black" d="M361.76,-217.46C368.62,-208.4 377.41,-196.79 385.12,-186.61"/>
<polygon fill="black" stroke="black" points="388.02,-188.58 391.27,-178.49 382.44,-184.35 388.02,-188.58"/>
</g>
<!-- Mul(NegativeOne(), Pow(Symbol(x), Integer(2)))_(1,) -->
<g id="node14" class="node">
<title>Mul(NegativeOne(), Pow(Symbol(x), Integer(2)))_(1,)</title>
<ellipse fill="none" stroke="black" cx="497" cy="-234" rx="27" ry="18"/>
<text text-anchor="middle" x="497" y="-230.3" font-family="Times,serif" font-size="14.00">Mul</text>
</g>
<!-- Mul(NegativeOne(), Pow(Symbol(x), Integer(2)))_(1,)&#45;&gt;NegativeOne()_(1, 0) -->
<g id="edge8" class="edge">
<title>Mul(NegativeOne(), Pow(Symbol(x), Integer(2)))_(1,)&#45;&gt;NegativeOne()_(1, 0)</title>
<path fill="none" stroke="black" d="M497,-215.7C497,-207.98 497,-198.71 497,-190.11"/>
<polygon fill="black" stroke="black" points="500.5,-190.1 497,-180.1 493.5,-190.1 500.5,-190.1"/>
</g>
<!-- Mul(NegativeOne(), Pow(Symbol(x), Integer(2)))_(1,)&#45;&gt;Pow(Symbol(x), Integer(2))_(1, 1) -->
<g id="edge10" class="edge">
<title>Mul(NegativeOne(), Pow(Symbol(x), Integer(2)))_(1,)&#45;&gt;Pow(Symbol(x), Integer(2))_(1, 1)</title>
<path fill="none" stroke="black" d="M514.68,-219.83C528.95,-209.21 549.22,-194.11 565.28,-182.15"/>
<polygon fill="black" stroke="black" points="567.78,-184.65 573.71,-175.87 563.6,-179.04 567.78,-184.65"/>
</g>
<!-- Add(Mul(Half(), sin(Mul(Symbol(x), Symbol(y)))), Mul(NegativeOne(), Pow(Symbol(x), Integer(2))), Pow(Symbol(y), NegativeOne()))_() -->
<g id="node15" class="node">
<title>Add(Mul(Half(), sin(Mul(Symbol(x), Symbol(y)))), Mul(NegativeOne(), Pow(Symbol(x), Integer(2))), Pow(Symbol(y), NegativeOne()))_()</title>
<ellipse fill="none" stroke="black" cx="350" cy="-306" rx="27" ry="18"/>
<text text-anchor="middle" x="350" y="-302.3" font-family="Times,serif" font-size="14.00">Add</text>
</g>
<!-- Add(Mul(Half(), sin(Mul(Symbol(x), Symbol(y)))), Mul(NegativeOne(), Pow(Symbol(x), Integer(2))), Pow(Symbol(y), NegativeOne()))_()&#45;&gt;Pow(Symbol(y), NegativeOne())_(2,) -->
<g id="edge12" class="edge">
<title>Add(Mul(Half(), sin(Mul(Symbol(x), Symbol(y)))), Mul(NegativeOne(), Pow(Symbol(x), Integer(2))), Pow(Symbol(y), NegativeOne()))_()&#45;&gt;Pow(Symbol(y), NegativeOne())_(2,)</title>
<path fill="none" stroke="black" d="M327.32,-296.13C295.94,-283.86 239.08,-261.62 203.27,-247.62"/>
<polygon fill="black" stroke="black" points="204.35,-244.29 193.76,-243.9 201.8,-250.81 204.35,-244.29"/>
</g>
<!-- Add(Mul(Half(), sin(Mul(Symbol(x), Symbol(y)))), Mul(NegativeOne(), Pow(Symbol(x), Integer(2))), Pow(Symbol(y), NegativeOne()))_()&#45;&gt;Mul(Half(), sin(Mul(Symbol(x), Symbol(y))))_(0,) -->
<g id="edge13" class="edge">
<title>Add(Mul(Half(), sin(Mul(Symbol(x), Symbol(y)))), Mul(NegativeOne(), Pow(Symbol(x), Integer(2))), Pow(Symbol(y), NegativeOne()))_()&#45;&gt;Mul(Half(), sin(Mul(Symbol(x), Symbol(y))))_(0,)</title>
<path fill="none" stroke="black" d="M350,-287.7C350,-279.98 350,-270.71 350,-262.11"/>
<polygon fill="black" stroke="black" points="353.5,-262.1 350,-252.1 346.5,-262.1 353.5,-262.1"/>
</g>
<!-- Add(Mul(Half(), sin(Mul(Symbol(x), Symbol(y)))), Mul(NegativeOne(), Pow(Symbol(x), Integer(2))), Pow(Symbol(y), NegativeOne()))_()&#45;&gt;Mul(NegativeOne(), Pow(Symbol(x), Integer(2)))_(1,) -->
<g id="edge14" class="edge">
<title>Add(Mul(Half(), sin(Mul(Symbol(x), Symbol(y)))), Mul(NegativeOne(), Pow(Symbol(x), Integer(2))), Pow(Symbol(y), NegativeOne()))_()&#45;&gt;Mul(NegativeOne(), Pow(Symbol(x), Integer(2)))_(1,)</title>
<path fill="none" stroke="black" d="M371.37,-294.82C396.41,-282.9 438.08,-263.06 466.51,-249.52"/>
<polygon fill="black" stroke="black" points="468.07,-252.65 475.59,-245.19 465.06,-246.33 468.07,-252.65"/>
</g>
</g>
</svg>
