<?xml version="1.0" encoding="UTF-8" standalone="no"?>
<!DOCTYPE svg PUBLIC "-//W3C//DTD SVG 1.1//EN"
 "http://www.w3.org/Graphics/SVG/1.1/DTD/svg11.dtd">
<!-- Generated by graphviz version 2.47.1 (0)
 -->
<!-- Pages: 1 -->
<svg width="466pt" height="188pt"
 viewBox="0.00 0.00 465.99 188.00" xmlns="http://www.w3.org/2000/svg" xmlns:xlink="http://www.w3.org/1999/xlink">
<g id="graph0" class="graph" transform="scale(1 1) rotate(0) translate(4 184)">
<polygon fill="white" stroke="transparent" points="-4,4 -4,-184 461.99,-184 461.99,4 -4,4"/>
<!-- Add(Pow(Symbol(&#39;x&#39;), Integer(2)), Mul(Symbol(&#39;x&#39;), Symbol(&#39;y&#39;)))_() -->
<g id="node1" class="node">
<title>Add(Pow(Symbol(&#39;x&#39;), Integer(2)), Mul(Symbol(&#39;x&#39;), Symbol(&#39;y&#39;)))_()</title>
<ellipse fill="none" stroke="black" cx="226" cy="-162" rx="27" ry="18"/>
<text text-anchor="middle" x="226" y="-158.3" font-family="Times,serif" font-size="14.00">Add</text>
</g>
<!-- Pow(Symbol(&#39;x&#39;), Integer(2))_(0,) -->
<g id="node2" class="node">
<title>Pow(Symbol(&#39;x&#39;), Integer(2))_(0,)</title>
<ellipse fill="none" stroke="black" cx="168" cy="-90" rx="27" ry="18"/>
<text text-anchor="middle" x="168" y="-86.3" font-family="Times,serif" font-size="14.00">Pow</text>
</g>
<!-- Add(Pow(Symbol(&#39;x&#39;), Integer(2)), Mul(Symbol(&#39;x&#39;), Symbol(&#39;y&#39;)))_()&#45;&gt;Pow(Symbol(&#39;x&#39;), Integer(2))_(0,) -->
<g id="edge1" class="edge">
<title>Add(Pow(Symbol(&#39;x&#39;), Integer(2)), Mul(Symbol(&#39;x&#39;), Symbol(&#39;y&#39;)))_()&#45;&gt;Pow(Symbol(&#39;x&#39;), Integer(2))_(0,)</title>
<path fill="none" stroke="black" d="M213.41,-145.81C205.73,-136.55 195.77,-124.52 187.13,-114.09"/>
<polygon fill="black" stroke="black" points="189.63,-111.63 180.56,-106.16 184.24,-116.09 189.63,-111.63"/>
</g>
<!-- Mul(Symbol(&#39;x&#39;), Symbol(&#39;y&#39;))_(1,) -->
<g id="node5" class="node">
<title>Mul(Symbol(&#39;x&#39;), Symbol(&#39;y&#39;))_(1,)</title>
<ellipse fill="none" stroke="black" cx="284" cy="-90" rx="27" ry="18"/>
<text text-anchor="middle" x="284" y="-86.3" font-family="Times,serif" font-size="14.00">Mul</text>
</g>
<!-- Add(Pow(Symbol(&#39;x&#39;), Integer(2)), Mul(Symbol(&#39;x&#39;), Symbol(&#39;y&#39;)))_()&#45;&gt;Mul(Symbol(&#39;x&#39;), Symbol(&#39;y&#39;))_(1,) -->
<g id="edge2" class="edge">
<title>Add(Pow(Symbol(&#39;x&#39;), Integer(2)), Mul(Symbol(&#39;x&#39;), Symbol(&#39;y&#39;)))_()&#45;&gt;Mul(Symbol(&#39;x&#39;), Symbol(&#39;y&#39;))_(1,)</title>
<path fill="none" stroke="black" d="M238.58,-145.81C246.26,-136.55 256.22,-124.52 264.86,-114.09"/>
<polygon fill="black" stroke="black" points="267.75,-116.09 271.43,-106.16 262.36,-111.63 267.75,-116.09"/>
</g>
<!-- Symbol(&#39;x&#39;)_(0, 0) -->
<g id="node3" class="node">
<title>Symbol(&#39;x&#39;)_(0, 0)</title>
<ellipse fill="none" stroke="black" cx="52" cy="-18" rx="51.99" ry="18"/>
<text text-anchor="middle" x="52" y="-14.3" font-family="Times,serif" font-size="14.00">Symbol(&#39;x&#39;)</text>
</g>
<!-- Pow(Symbol(&#39;x&#39;), Integer(2))_(0,)&#45;&gt;Symbol(&#39;x&#39;)_(0, 0) -->
<g id="edge3" class="edge">
<title>Pow(Symbol(&#39;x&#39;), Integer(2))_(0,)&#45;&gt;Symbol(&#39;x&#39;)_(0, 0)</title>
<path fill="none" stroke="black" d="M148.58,-77.28C131.39,-66.91 105.92,-51.54 85.45,-39.19"/>
<polygon fill="black" stroke="black" points="87.1,-36.1 76.73,-33.93 83.49,-42.09 87.1,-36.1"/>
</g>
<!-- Integer(2)_(0, 1) -->
<g id="node4" class="node">
<title>Integer(2)_(0, 1)</title>
<ellipse fill="none" stroke="black" cx="168" cy="-18" rx="46.29" ry="18"/>
<text text-anchor="middle" x="168" y="-14.3" font-family="Times,serif" font-size="14.00">Integer(2)</text>
</g>
<!-- Pow(Symbol(&#39;x&#39;), Integer(2))_(0,)&#45;&gt;Integer(2)_(0, 1) -->
<g id="edge4" class="edge">
<title>Pow(Symbol(&#39;x&#39;), Integer(2))_(0,)&#45;&gt;Integer(2)_(0, 1)</title>
<path fill="none" stroke="black" d="M168,-71.7C168,-63.98 168,-54.71 168,-46.11"/>
<polygon fill="black" stroke="black" points="171.5,-46.1 168,-36.1 164.5,-46.1 171.5,-46.1"/>
</g>
<!-- Symbol(&#39;x&#39;)_(1, 0) -->
<g id="node6" class="node">
<title>Symbol(&#39;x&#39;)_(1, 0)</title>
<ellipse fill="none" stroke="black" cx="284" cy="-18" rx="51.99" ry="18"/>
<text text-anchor="middle" x="284" y="-14.3" font-family="Times,serif" font-size="14.00">Symbol(&#39;x&#39;)</text>
</g>
<!-- Mul(Symbol(&#39;x&#39;), Symbol(&#39;y&#39;))_(1,)&#45;&gt;Symbol(&#39;x&#39;)_(1, 0) -->
<g id="edge5" class="edge">
<title>Mul(Symbol(&#39;x&#39;), Symbol(&#39;y&#39;))_(1,)&#45;&gt;Symbol(&#39;x&#39;)_(1, 0)</title>
<path fill="none" stroke="black" d="M284,-71.7C284,-63.98 284,-54.71 284,-46.11"/>
<polygon fill="black" stroke="black" points="287.5,-46.1 284,-36.1 280.5,-46.1 287.5,-46.1"/>
</g>
<!-- Symbol(&#39;y&#39;)_(1, 1) -->
<g id="node7" class="node">
<title>Symbol(&#39;y&#39;)_(1, 1)</title>
<ellipse fill="none" stroke="black" cx="406" cy="-18" rx="51.99" ry="18"/>
<text text-anchor="middle" x="406" y="-14.3" font-family="Times,serif" font-size="14.00">Symbol(&#39;y&#39;)</text>
</g>
<!-- Mul(Symbol(&#39;x&#39;), Symbol(&#39;y&#39;))_(1,)&#45;&gt;Symbol(&#39;y&#39;)_(1, 1) -->
<g id="edge6" class="edge">
<title>Mul(Symbol(&#39;x&#39;), Symbol(&#39;y&#39;))_(1,)&#45;&gt;Symbol(&#39;y&#39;)_(1, 1)</title>
<path fill="none" stroke="black" d="M303.87,-77.6C322.15,-67.11 349.65,-51.33 371.51,-38.79"/>
<polygon fill="black" stroke="black" points="373.25,-41.82 380.18,-33.81 369.77,-35.75 373.25,-41.82"/>
</g>
</g>
</svg>
