<?xml version="1.0" encoding="UTF-8" standalone="no"?>
<!DOCTYPE svg PUBLIC "-//W3C//DTD SVG 1.1//EN"
 "http://www.w3.org/Graphics/SVG/1.1/DTD/svg11.dtd">
<!-- Generated by graphviz version 2.47.1 (0)
 -->
<!-- Pages: 1 -->
<svg width="265pt" height="188pt"
 viewBox="0.00 0.00 264.74 188.00" xmlns="http://www.w3.org/2000/svg" xmlns:xlink="http://www.w3.org/1999/xlink">
<g id="graph0" class="graph" transform="scale(1 1) rotate(0) translate(4 184)">
<polygon fill="white" stroke="transparent" points="-4,4 -4,-184 260.74,-184 260.74,4 -4,4"/>
<!-- Symbol(x)_(1,) -->
<g id="node1" class="node">
<title>Symbol(x)_(1,)</title>
<ellipse fill="none" stroke="black" cx="52" cy="-90" rx="51.99" ry="18"/>
<text text-anchor="middle" x="52" y="-86.3" font-family="Times,serif" font-size="14.00">Symbol(&#39;x&#39;)</text>
</g>
<!-- Symbol(y)_(0, 1) -->
<g id="node2" class="node">
<title>Symbol(y)_(0, 1)</title>
<ellipse fill="none" stroke="black" cx="89" cy="-18" rx="51.99" ry="18"/>
<text text-anchor="middle" x="89" y="-14.3" font-family="Times,serif" font-size="14.00">Symbol(&#39;y&#39;)</text>
</g>
<!-- NegativeOne()_(0, 0) -->
<g id="node3" class="node">
<title>NegativeOne()_(0, 0)</title>
<ellipse fill="none" stroke="black" cx="208" cy="-18" rx="48.99" ry="18"/>
<text text-anchor="middle" x="208" y="-14.3" font-family="Times,serif" font-size="14.00">Integer(&#45;1)</text>
</g>
<!-- Mul(NegativeOne(), Symbol(y))_(0,) -->
<g id="node4" class="node">
<title>Mul(NegativeOne(), Symbol(y))_(0,)</title>
<ellipse fill="none" stroke="black" cx="149" cy="-90" rx="27" ry="18"/>
<text text-anchor="middle" x="149" y="-86.3" font-family="Times,serif" font-size="14.00">Mul</text>
</g>
<!-- Mul(NegativeOne(), Symbol(y))_(0,)&#45;&gt;Symbol(y)_(0, 1) -->
<g id="edge1" class="edge">
<title>Mul(NegativeOne(), Symbol(y))_(0,)&#45;&gt;Symbol(y)_(0, 1)</title>
<path fill="none" stroke="black" d="M135.98,-73.81C128.36,-64.93 118.57,-53.5 109.9,-43.39"/>
<polygon fill="black" stroke="black" points="112.41,-40.94 103.25,-35.63 107.1,-45.5 112.41,-40.94"/>
</g>
<!-- Mul(NegativeOne(), Symbol(y))_(0,)&#45;&gt;NegativeOne()_(0, 0) -->
<g id="edge2" class="edge">
<title>Mul(NegativeOne(), Symbol(y))_(0,)&#45;&gt;NegativeOne()_(0, 0)</title>
<path fill="none" stroke="black" d="M161.8,-73.81C169.29,-64.93 178.91,-53.5 187.44,-43.39"/>
<polygon fill="black" stroke="black" points="190.21,-45.53 193.98,-35.63 184.86,-41.02 190.21,-45.53"/>
</g>
<!-- Add(Mul(NegativeOne(), Symbol(y)), Symbol(x))_() -->
<g id="node5" class="node">
<title>Add(Mul(NegativeOne(), Symbol(y)), Symbol(x))_()</title>
<ellipse fill="none" stroke="black" cx="100" cy="-162" rx="27" ry="18"/>
<text text-anchor="middle" x="100" y="-158.3" font-family="Times,serif" font-size="14.00">Add</text>
</g>
<!-- Add(Mul(NegativeOne(), Symbol(y)), Symbol(x))_()&#45;&gt;Symbol(x)_(1,) -->
<g id="edge3" class="edge">
<title>Add(Mul(NegativeOne(), Symbol(y)), Symbol(x))_()&#45;&gt;Symbol(x)_(1,)</title>
<path fill="none" stroke="black" d="M89.1,-145.12C83.26,-136.59 75.92,-125.89 69.31,-116.25"/>
<polygon fill="black" stroke="black" points="72.06,-114.07 63.51,-107.8 66.28,-118.02 72.06,-114.07"/>
</g>
<!-- Add(Mul(NegativeOne(), Symbol(y)), Symbol(x))_()&#45;&gt;Mul(NegativeOne(), Symbol(y))_(0,) -->
<g id="edge4" class="edge">
<title>Add(Mul(NegativeOne(), Symbol(y)), Symbol(x))_()&#45;&gt;Mul(NegativeOne(), Symbol(y))_(0,)</title>
<path fill="none" stroke="black" d="M110.87,-145.46C117.15,-136.49 125.18,-125.02 132.25,-114.92"/>
<polygon fill="black" stroke="black" points="135.28,-116.69 138.15,-106.49 129.55,-112.68 135.28,-116.69"/>
</g>
</g>
</svg>
